<?xml version="1.0" encoding="UTF-8"?>
<svg version="1.1" xmlns="http://www.w3.org/2000/svg" width="402" height="348">
<path d="M0 0 C0.95712891 0.1853833 0.95712891 0.1853833 1.93359375 0.37451172 C19.72793316 3.89666383 36.29123378 9.96842434 52 19 C53.52061382 19.79208823 55.04141666 20.58381379 56.5625 21.375 C70.35095994 29.1471469 82.9364641 39.74371958 94 51 C94.763125 51.721875 95.52625 52.44375 96.3125 53.1875 C98 55 98 55 98 57 C98.66 57 99.32 57 100 57 C100 57.66 100 58.32 100 59 C100.99 59.33 101.98 59.66 103 60 C104.31640625 61.59375 104.31640625 61.59375 105.5625 63.5 C107.31619395 66.25536594 107.31619395 66.25536594 110 68 C112.0095568 70.93704456 113 72.39222485 113 76 C113.66 76 114.32 76 115 76 C115.33 77.65 115.66 79.3 116 81 C116.66 81 117.32 81 118 81 C121 86.625 121 86.625 121 90 C121.66 90 122.32 90 123 90 C126 96.5 126 96.5 126 101 C126.66 101 127.32 101 128 101 C131 107.5 131 107.5 131 112 C131.66 112 132.32 112 133 112 C133 113.65 133 115.3 133 117 C133.66 117 134.32 117 135 117 C135.10957031 117.7734375 135.21914063 118.546875 135.33203125 119.34375 C135.56986328 120.90609375 135.56986328 120.90609375 135.8125 122.5 C135.96332031 123.5209375 136.11414063 124.541875 136.26953125 125.59375 C136.8401947 128.25481163 137.48466211 130.30891569 138.50390625 132.78515625 C140.32388649 137.42886003 140.7357612 141.99569373 141.125 146.9375 C141.10423258 152.403261 141.10423258 152.403261 143 157 C143.10003289 159.13353174 143.13081048 161.27037542 143.1328125 163.40625 C143.13410156 164.70691406 143.13539063 166.00757813 143.13671875 167.34765625 C143.13462402 168.02844238 143.1325293 168.70922852 143.13037109 169.41064453 C143.1250224 171.49128515 143.1303168 173.57170989 143.13671875 175.65234375 C143.13478516 177.60333984 143.13478516 177.60333984 143.1328125 179.59375 C143.13168457 180.79708984 143.13055664 182.00042969 143.12939453 183.24023438 C143 186 143 186 142 187 C141.58264934 190.64612714 141.23127557 194.29031886 140.92578125 197.94726562 C140.46234914 202.71119064 139.51299739 206.68352035 137.70410156 211.10913086 C136.62337976 214.01141601 136.22674009 216.94099628 135.8125 220 C135.65394531 221.134375 135.49539063 222.26875 135.33203125 223.4375 C135.16767578 224.7059375 135.16767578 224.7059375 135 226 C134.34 226 133.68 226 133 226 C133 227.65 133 229.3 133 231 C132.34 231 131.68 231 131 231 C130.87625 232.2375 130.7525 233.475 130.625 234.75 C130.24253695 237.8762197 129.69450477 240.28879237 128 243 C127.34 243 126.68 243 126 243 C125.90460938 243.8559375 125.80921875 244.711875 125.7109375 245.59375 C124.91535516 249.40555111 123.53515789 252.11491007 121.625 255.5 C119.31664745 259.62556625 117.08374872 263.75580015 115 268 C114.34 268 113.68 268 113 268 C112.67 269.32 112.34 270.64 112 272 C111.34 272 110.68 272 110 272 C110 272.99 110 273.98 110 275 C109.34 275 108.68 275 108 275 C107.690625 275.99 107.690625 275.99 107.375 277 C105.50875748 281.07180186 103.02438473 284.68796998 100 288 C99.34 288 98.68 288 98 288 C97.67 288.99 97.34 289.98 97 291 C96.34 291 95.68 291 95 291 C95 291.66 95 292.32 95 293 C94.34 293 93.68 293 93 293 C92.74863281 293.58910156 92.49726563 294.17820312 92.23828125 294.78515625 C90.84544599 297.27644202 89.3791428 298.62300414 87.1875 300.4375 C84.88756992 302.37601249 82.76122194 304.25168498 80.6875 306.4375 C69.6097561 317 69.6097561 317 65 317 C65 317.66 65 318.32 65 319 C31.68778245 343.00341424 -14.69016681 350.8471038 -54.6887207 344.87280273 C-77.34053935 340.86176859 -98.38028672 331.84536906 -118 320 C-118.92167969 319.45988281 -119.84335938 318.91976563 -120.79296875 318.36328125 C-122.88667391 317.07000143 -124.27362464 315.72637536 -126 314 C-126.886875 313.484375 -127.77375 312.96875 -128.6875 312.4375 C-129.8321875 311.7259375 -129.8321875 311.7259375 -131 311 C-131 310.34 -131 309.68 -131 309 C-131.99 308.67 -132.98 308.34 -134 308 C-134 307.34 -134 306.68 -134 306 C-135.65 305.34 -137.3 304.68 -139 304 C-139 303.34 -139 302.68 -139 302 C-139.804375 301.690625 -139.804375 301.690625 -140.625 301.375 C-143.91978009 299.46749574 -146.59363628 296.95180616 -149 294 C-149 293.34 -149 292.68 -149 292 C-149.639375 291.731875 -150.27875 291.46375 -150.9375 291.1875 C-153 290 -153 290 -154 287 C-154.66 287 -155.32 287 -156 287 C-157.5078125 285.35546875 -157.5078125 285.35546875 -159.125 283.1875 C-159.66382813 282.47980469 -160.20265625 281.77210938 -160.7578125 281.04296875 C-162 279 -162 279 -162 276 C-162.66 276 -163.32 276 -164 276 C-164 275.34 -164 274.68 -164 274 C-164.66 274 -165.32 274 -166 274 C-166.33 272.68 -166.66 271.36 -167 270 C-167.66 270 -168.32 270 -169 270 C-169 269.01 -169 268.02 -169 267 C-169.66 267 -170.32 267 -171 267 C-171.33 265.02 -171.66 263.04 -172 261 C-172.66 261 -173.32 261 -174 261 C-177 255.375 -177 255.375 -177 252 C-177.66 252 -178.32 252 -179 252 C-181.15305957 248.14243493 -182.39253254 245.44870215 -182 241 C-182.66 241 -183.32 241 -184 241 C-184.50559908 239.56445975 -185.0042749 238.1264798 -185.5 236.6875 C-185.7784375 235.88699219 -186.056875 235.08648437 -186.34375 234.26171875 C-187 232 -187 232 -187 229 C-187.66 229 -188.32 229 -189 229 C-189 226.69 -189 224.38 -189 222 C-189.66 222 -190.32 222 -191 222 C-191.10957031 221.04738281 -191.21914062 220.09476563 -191.33203125 219.11328125 C-191.49058594 217.85902344 -191.64914063 216.60476562 -191.8125 215.3125 C-191.96332031 214.07113281 -192.11414063 212.82976562 -192.26953125 211.55078125 C-192.76254584 208.04831906 -192.76254584 208.04831906 -194.53515625 205.66015625 C-196.75587637 201.62732851 -196.53204126 197.66005849 -196.625 193.125 C-196.1443413 183.48868291 -196.1443413 183.48868291 -199 175 C-199.0979057 173.50261876 -199.12974864 172.00057108 -199.125 170.5 C-199.12757813 169.6853125 -199.13015625 168.870625 -199.1328125 168.03125 C-199 166 -199 166 -198 165 C-197.86762997 163.668108 -197.79680374 162.32995352 -197.75390625 160.9921875 C-197.72103516 160.16976562 -197.68816406 159.34734375 -197.65429688 158.5 C-197.59392225 156.77354256 -197.53654516 155.04697722 -197.48242188 153.3203125 C-197.2724667 148.21800551 -196.62241172 143.84752975 -195 139 C-193.35 138.67 -191.7 138.34 -190 138 C-187.60251894 143.73310689 -186.41588046 148.80481527 -186 155 C-185.34 155 -184.68 155 -184 155 C-183.51171875 156.98567708 -183.0234375 158.97135417 -182.53515625 160.95703125 C-182.08989295 162.65683202 -181.55566015 164.33301954 -181 166 C-180.96045766 168.33299825 -180.95598268 170.66708189 -181 173 C-180.34 173 -179.68 173 -179 173 C-178.83564453 173.88751953 -178.83564453 173.88751953 -178.66796875 174.79296875 C-178.50941406 175.58316406 -178.35085937 176.37335938 -178.1875 177.1875 C-178.03667969 177.96480469 -177.88585937 178.74210938 -177.73046875 179.54296875 C-177.11348075 182.07553561 -177.11348075 182.07553561 -175.48828125 184.21484375 C-173.37447342 188.17060486 -173.30135224 191.95060116 -173 196.375 C-172.57078266 202.61816126 -171.5921973 207.22056276 -169 213 C-168.48828125 216.30859375 -168.48828125 216.30859375 -168.3125 219.4375 C-168.24675781 220.48808594 -168.18101562 221.53867188 -168.11328125 222.62109375 C-168.07589844 223.40613281 -168.03851563 224.19117188 -168 225 C-167.34 225 -166.68 225 -166 225 C-165.75765625 225.71285156 -165.5153125 226.42570313 -165.265625 227.16015625 C-162.96326806 233.75669586 -162.96326806 233.75669586 -159.75 239.9375 C-158 243 -158 243 -158 247 C-157.34 247 -156.68 247 -156 247 C-155.03810003 248.72718516 -154.08063492 250.45684058 -153.125 252.1875 C-152.32449219 253.63189453 -152.32449219 253.63189453 -151.5078125 255.10546875 C-150.1576322 257.69739518 -149.02901671 260.26761098 -148 263 C-147.34 263 -146.68 263 -146 263 C-143 267.38461538 -143 267.38461538 -143 270 C-142.34 270 -141.68 270 -141 270 C-140.67 271.32 -140.34 272.64 -140 274 C-139.34 274 -138.68 274 -138 274 C-138 274.66 -138 275.32 -138 276 C-137.01 276.33 -136.02 276.66 -135 277 C-135 277.66 -135 278.32 -135 279 C-134.34 279 -133.68 279 -133 279 C-133 279.66 -133 280.32 -133 281 C-132.34 281 -131.68 281 -131 281 C-129.375 282.375 -129.375 282.375 -128 284 C-128 284.66 -128 285.32 -128 286 C-127.34 286 -126.68 286 -126 286 C-124.33333333 287.66666667 -122.66666667 289.33333333 -121 291 C-119.04954357 292.43645379 -117.05386585 293.7103633 -115 295 C-115.15597656 294.39414062 -115.31195313 293.78828125 -115.47265625 293.1640625 C-117.03360636 286.44474082 -118.41116453 278.87107511 -114.57421875 272.7109375 C-114.05472656 272.14632813 -113.53523438 271.58171875 -113 271 C-112.34 271 -111.68 271 -111 271 C-111 270.34 -111 269.68 -111 269 C-105.42973187 265.71497008 -100.00268819 264.21247923 -93.59765625 265.47265625 C-89.04475406 266.85898088 -85.41877155 268.58122845 -82 272 C-82 272.66 -82 273.32 -82 274 C-81.34 274 -80.68 274 -80 274 C-77.26498431 279.87481369 -77.35041118 285.63242566 -78 292 C-80.48488964 297.24587813 -84.16669372 300.54505894 -89.3125 303.1875 C-92.87021134 304.26308715 -96.30224262 304.62395688 -100 305 C-93.32523637 309.44984242 -86.3254508 312.75044789 -79 316 C-78.67 315.34 -78.34 314.68 -78 314 C-78.66 314 -79.32 314 -80 314 C-82 311 -82 311 -81.9375 308.5625 C-81 306 -81 306 -78.625 304.125 C-72.77963385 299.39303693 -72.4940622 292.64100658 -71.72265625 285.57421875 C-71 283 -71 283 -69.27026367 281.87738037 C-61.84597515 279.00814316 -52.61123449 279.83160824 -44.75 279.796875 C-43.72946533 279.79117493 -42.70893066 279.78547485 -41.6574707 279.77960205 C-39.52312229 279.77023513 -37.38875996 279.76365159 -35.25439453 279.75976562 C-31.98054695 279.74994163 -28.7072977 279.71879456 -25.43359375 279.6875 C-23.3515662 279.68097966 -21.2695342 279.67572541 -19.1875 279.671875 C-17.72038574 279.6533548 -17.72038574 279.6533548 -16.22363281 279.63446045 C-14.8657666 279.6389621 -14.8657666 279.6389621 -13.48046875 279.64355469 C-12.68535889 279.63990906 -11.89024902 279.63626343 -11.07104492 279.63250732 C-8.45237986 280.09717143 -7.60644273 280.91411684 -6 283 C-5.67 283.99 -5.34 284.98 -5 286 C-2.81959539 285.18419851 -2.81959539 285.18419851 -2.18359375 283.00390625 C-1.93738281 282.19824219 -1.69117188 281.39257812 -1.4375 280.5625 C-0.06329114 276.12658228 -0.06329114 276.12658228 1 274 C1.66 274 2.32 274 3 274 C3.33 273.01 3.66 272.02 4 271 C9.44944996 267.05900128 15.77180326 265.42843595 22.3984375 266.32421875 C26.21500462 267.09617812 28.71408532 267.80939022 32 270 C32 270.66 32 271.32 32 272 C32.99 272.33 33.98 272.66 35 273 C38.63042476 277.90733278 40.32496325 283.93401942 40 290 C39.25032433 292.58116179 38.2725087 294.60768364 37 297 C36.34 297 35.68 297 35 297 C34.79375 297.5775 34.5875 298.155 34.375 298.75 C31.98035626 302.66850794 28.27248678 304.57583774 24 306 C17.1256801 306.7569197 10.78703713 306.04094834 5 302 C3.75 299.859375 3.75 299.859375 3 298 C2.34 298 1.68 298 1 298 C-2 294.53846154 -2 294.53846154 -2 292 C-3.32 292 -4.64 292 -6 292 C-5.67 294.31 -5.34 296.62 -5 299 C-6.31605225 299.02505615 -7.63210449 299.0501123 -8.98803711 299.07592773 C-13.90267533 299.17058684 -18.81719133 299.27066124 -23.73168945 299.37231445 C-25.85275398 299.41544325 -27.97384831 299.45713236 -30.0949707 299.49731445 C-33.15585283 299.55555534 -36.21658794 299.61909048 -39.27734375 299.68359375 C-40.6841465 299.70866249 -40.6841465 299.70866249 -42.11936951 299.73423767 C-47.80490501 299.86020129 -53.35649736 300.29235866 -59 301 C-59 302.65 -59 304.3 -59 306 C-58.34 306 -57.68 306 -57 306 C-57 306.66 -57 307.32 -57 308 C-56.34 308 -55.68 308 -55 308 C-54.67 309.32 -54.34 310.64 -54 312 C-53.34 312 -52.68 312 -52 312 C-50.8476561 313.18623636 -49.69583635 314.37298708 -48.546875 315.5625 C-42.94776169 320.76571641 -36.38127776 323.74874393 -28.73046875 324.1875 C-24.68412379 323.9841235 -21.66312905 323.09868214 -17.875 321.6875 C-16.69679687 321.25824219 -15.51859375 320.82898438 -14.3046875 320.38671875 C-11.32928152 319.13817369 -8.74961 317.66835767 -6 316 C-5.34 316 -4.68 316 -4 316 C-4 315.34 -4 314.68 -4 314 C-1.80167614 311.01027955 -0.57531994 310.09205119 3.125 309.5 C7.39149499 310.05051548 10.75167725 311.30664245 14.66796875 313.02734375 C16.77590626 313.90653377 18.77346963 314.51374624 21 315 C21 315.66 21 316.32 21 317 C35.36074456 311.42803111 48.58806377 305.30895217 61 296 C55.39 295.67 49.78 295.34 44 295 C44.66 294.67 45.32 294.34 46 294 C46 288.06 46 282.12 46 276 C48.49175781 276.01160156 50.98351562 276.02320313 53.55078125 276.03515625 C55.96345899 276.04295448 58.37613533 276.04902689 60.78881836 276.05493164 C62.46590808 276.05996113 64.14299342 276.06678548 65.82006836 276.07543945 C68.230317 276.08756559 70.64050768 276.09324215 73.05078125 276.09765625 C73.80087967 276.10281754 74.55097809 276.10797882 75.32380676 276.11329651 C78.48951232 276.11363785 80.97337972 276.00887343 84 275 C84.73323796 272.98491642 84.73323796 272.98491642 85 271 C85.66 271 86.32 271 87 271 C87.268125 270.2575 87.53625 269.515 87.8125 268.75 C88.95276751 266.10938051 90.09380306 264.14447156 92 262 C92.66 262 93.32 262 94 262 C94.12375 261.236875 94.2475 260.47375 94.375 259.6875 C95 257 95 257 97 254 C97.66 254 98.32 254 99 254 C99.33 252.35 99.66 250.7 100 249 C100.66 249 101.32 249 102 249 C102.33 247.02 102.66 245.04 103 243 C103.66 243 104.32 243 105 243 C105 241.68 105 240.36 105 239 C105.66 239 106.32 239 107 239 C107.12375 237.9275 107.2475 236.855 107.375 235.75 C107.89643936 232.62136385 108.40088254 230.66519576 110 228 C110.66 228 111.32 228 112 228 C112.33 224.7 112.66 221.4 113 218 C113.66 218 114.32 218 115 218 C114.938125 216.39125 114.938125 216.39125 114.875 214.75 C115 211 115 211 115.96875 209.125 C117.26173004 206.4606775 117.41466402 204.19470374 117.625 201.25 C117.69976562 200.26515625 117.77453125 199.2803125 117.8515625 198.265625 C117.90054687 197.51796875 117.94953125 196.7703125 118 196 C118.66 196 119.32 196 120 196 C119.979375 195.030625 119.95875 194.06125 119.9375 193.0625 C120 190 120 190 121 189 C121.10082764 186.56339554 121.13972603 184.15575299 121.1328125 181.71875 C121.13376923 180.99006714 121.13472595 180.26138428 121.13571167 179.51062012 C121.13639335 177.9672029 121.13453988 176.42378283 121.13037109 174.88037109 C121.12502262 172.510026 121.13031642 170.13987041 121.13671875 167.76953125 C121.13605797 166.27343708 121.1347768 164.77734303 121.1328125 163.28125 C121.13584885 162.21094543 121.13584885 162.21094543 121.13894653 161.11901855 C121.41648651 157.77513571 121.41648651 157.77513571 120 155 C119.85884839 152.32941149 119.95752893 149.67567762 120 147 C119.34 147 118.68 147 118 147 C117.67 142.05 117.34 137.1 117 132 C116.34 132 115.68 132 115 132 C114.87625 130.9275 114.7525 129.855 114.625 128.75 C114.22660091 125.18185277 114.22660091 125.18185277 112.9375 122.9375 C111.6410943 120.25826155 111.86673646 117.93179788 112 115 C111.34 115 110.68 115 110 115 C107.96564469 111.27034861 107 109.33094958 107 105 C106.34 105 105.68 105 105 105 C105 103.68 105 102.36 105 101 C104.34 101 103.68 101 103 101 C102.67 99.35 102.34 97.7 102 96 C101.34 96 100.68 96 100 96 C97 90.25 97 90.25 97 88 C96.34 88 95.68 88 95 88 C94.67 86.68 94.34 85.36 94 84 C90.39090954 84.59617302 87.47072148 85.58983789 84.1875 87.1875 C57.8962614 99.33803258 27.65233176 107.04280653 -1.390625 107.203125 C-2.24928162 107.21018463 -3.10793823 107.21724426 -3.99261475 107.22451782 C-31.65414284 107.40036571 -58.48050298 105.83983234 -85 97 C-85 97.99 -85 98.98 -85 100 C-85.66 100 -86.32 100 -87 100 C-87.07347656 101.32064453 -87.07347656 101.32064453 -87.1484375 102.66796875 C-87.22320312 103.82941406 -87.29796875 104.99085937 -87.375 106.1875 C-87.44460937 107.33605469 -87.51421875 108.48460938 -87.5859375 109.66796875 C-87.97509574 112.79959117 -88.6809851 115.15285809 -90 118 C-90.66 118 -91.32 118 -92 118 C-92 118.66 -92 119.32 -92 120 C-98.93 120 -105.86 120 -113 120 C-110 105 -110 105 -108 101 C-107.34 101 -106.68 101 -106 101 C-106 97.37 -106 93.74 -106 90 C-107.20914063 89.5153125 -108.41828125 89.030625 -109.6640625 88.53125 C-119.92483223 84.35253235 -129.54910375 79.79696083 -139 74 C-139 73.34 -139 72.68 -139 72 C-140.65 71.67 -142.3 71.34 -144 71 C-144.0825 71.53625 -144.165 72.0725 -144.25 72.625 C-145.27581271 75.87340691 -146.96563894 78.28751859 -149 81 C-149.66 81 -150.32 81 -151 81 C-151 81.99 -151 82.98 -151 84 C-151.66 84 -152.32 84 -153 84 C-153.309375 84.78375 -153.61875 85.5675 -153.9375 86.375 C-155 89 -155 89 -156 91 C-157.65 91 -159.3 91 -161 91 C-161.33 90.01 -161.66 89.02 -162 88 C-162.66 88 -163.32 88 -164 88 C-164 87.01 -164 86.02 -164 85 C-164.99 84.67 -165.98 84.34 -167 84 C-167 83.34 -167 82.68 -167 82 C-167.9590625 81.62875 -167.9590625 81.62875 -168.9375 81.25 C-171 80 -171 80 -171.8125 78.0625 C-172 76 -172 76 -171 73 C-170.34 73 -169.68 73 -169 73 C-168.690625 72.21625 -168.38125 71.4325 -168.0625 70.625 C-167 68 -167 68 -166 66 C-165.34 66 -164.68 66 -164 66 C-163.505 64.02 -163.505 64.02 -163 62 C-162.34 62 -161.68 62 -161 62 C-161 61.34 -161 60.68 -161 60 C-160.34 60 -159.68 60 -159 60 C-158.74259033 59.25580811 -158.48518066 58.51161621 -158.2199707 57.74487305 C-156.95074792 54.88918529 -155.67063391 53.28399717 -153.48046875 51.08203125 C-152.78759766 50.38529297 -152.09472656 49.68855469 -151.38085938 48.97070312 C-150.65705078 48.25849609 -149.93324219 47.54628906 -149.1875 46.8125 C-148.47529297 46.08869141 -147.76308594 45.36488281 -147.02929688 44.61914062 C-146.33255859 43.92626953 -145.63582031 43.23339844 -144.91796875 42.51953125 C-144.28656982 41.89151611 -143.6551709 41.26350098 -143.00463867 40.61645508 C-140.78164839 38.82393058 -138.68653235 37.92924877 -136 37 C-136 36.34 -136 35.68 -136 35 C-134.35 34.34 -132.7 33.68 -131 33 C-131 32.34 -131 31.68 -131 31 C-128.9453125 29.484375 -128.9453125 29.484375 -126.125 27.75 C-124.59746094 26.81027344 -124.59746094 26.81027344 -123.0390625 25.8515625 C-122.03617187 25.24054687 -121.03328125 24.62953125 -120 24 C-119.24460937 23.51273438 -118.48921875 23.02546875 -117.7109375 22.5234375 C-83.7440323 1.0390699 -39.56138915 -7.93949897 0 0 Z M-124.375 52.30859375 C-126.34640456 53.96963994 -126.34640456 53.96963994 -126 57 C-122.50046041 59.63467792 -118.66664938 61.74944104 -114.86962891 63.92724609 C-113.63844289 64.63367484 -112.41140071 65.34738308 -111.18896484 66.06884766 C-109.46893145 67.08322632 -107.73461965 68.0732712 -106 69.0625 C-104.96875 69.65160156 -103.9375 70.24070313 -102.875 70.84765625 C-99.68033203 72.12812779 -98.22829352 72.03851354 -95 71 C-95 70.01 -95 69.02 -95 68 C-94.34 68 -93.68 68 -93 68 C-93 66.68 -93 65.36 -93 64 C-92.34 64 -91.68 64 -91 64 C-90.67 62.02 -90.34 60.04 -90 58 C-89.34 58 -88.68 58 -88 58 C-86.38413685 55.79189451 -86.38413685 55.79189451 -84.75 53 C-82.06940679 48.6447385 -79.25059482 44.55753553 -76.06640625 40.55859375 C-74.81177203 39.03964778 -74.81177203 39.03964778 -75 37 C-74.34 37 -73.68 37 -73 37 C-70.60179695 34.36315253 -70.60179695 34.36315253 -70 31 C-69.01 30.67 -68.02 30.34 -67 30 C-67 29.34 -67 28.68 -67 28 C-66.34 28 -65.68 28 -65 28 C-65 27.34 -65 26.68 -65 26 C-64.360625 25.71125 -63.72125 25.4225 -63.0625 25.125 C-60.84793921 24.17176549 -60.84793921 24.17176549 -60 22 C-82.23234909 22 -107.54186492 39.04696266 -124.375 52.30859375 Z M-31 24 C-31 24.66 -31 25.32 -31 26 C-32.98 26.66 -34.96 27.32 -37 28 C-37 28.66 -37 29.32 -37 30 C-37.680625 30.20625 -38.36125 30.4125 -39.0625 30.625 C-42.91536774 32.42847001 -46.16353968 34.81279458 -49 38 C-49.36017861 39.32633339 -49.69770995 40.65928765 -50 42 C-51.31647119 42.69937532 -52.65022151 43.36729133 -54 44 C-54.33 44.99 -54.66 45.98 -55 47 C-55.66 47 -56.32 47 -57 47 C-57 47.66 -57 48.32 -57 49 C-57.66 49 -58.32 49 -59 49 C-61.31592022 52.22114157 -61.31592022 52.22114157 -62 56 C-62.66 56 -63.32 56 -64 56 C-64.495 58.475 -64.495 58.475 -65 61 C-65.66 61 -66.32 61 -67 61 C-69.04169485 63.90548882 -70 65.40142046 -70 69 C-70.66 69 -71.32 69 -72 69 C-73.65 72.3 -75.3 75.6 -77 79 C-67.09799101 82.39251438 -57.32548776 84.45245676 -47 86 C-45.70449219 86.20753906 -44.40898437 86.41507812 -43.07421875 86.62890625 C-25.52080486 89.16587297 6.7453848 93.1273076 23 85 C21.46527032 80.27775484 19.76054874 75.64144669 18 71 C17.34 71 16.68 71 16 71 C15.814375 70.195625 15.814375 70.195625 15.625 69.375 C14.87793984 66.5361714 13.94696636 63.77776798 13 61 C12.34 61 11.68 61 11 61 C10.87625 60.4225 10.7525 59.845 10.625 59.25 C9.99351176 56.97664233 9.11141809 55.0746471 8 53 C7.34 53 6.68 53 6 53 C5.731875 52.443125 5.46375 51.88625 5.1875 51.3125 C3.89100504 48.78774666 2.57523677 46.36285516 1 44 C0.34 44 -0.32 44 -1 44 C-1.28875 43.401875 -1.5775 42.80375 -1.875 42.1875 C-3.04742026 39.80672208 -3.04742026 39.80672208 -5 37 C-5.66 37 -6.32 37 -7 37 C-7 36.34 -7 35.68 -7 35 C-8.33333333 33.33333333 -8.33333333 33.33333333 -10 32 C-10.66 32 -11.32 32 -12 32 C-12 31.34 -12 30.68 -12 30 C-14.36714753 27.94904103 -14.36714753 27.94904103 -17.3125 25.875 C-18.29863281 25.15054687 -19.28476563 24.42609375 -20.30078125 23.6796875 C-24.47531003 21.08193442 -26.73391953 22.15520844 -31 24 Z M9 24 C8.78468592 26.10031679 8.78468592 26.10031679 10.375 27.625 C11.89968321 29.21531408 11.89968321 29.21531408 14 29 C14 29.66 14 30.32 14 31 C14.66 31.33 15.32 31.66 16 32 C16.33 32.99 16.66 33.98 17 35 C17.66 35 18.32 35 19 35 C19 35.66 19 36.32 19 37 C19.66 37 20.32 37 21 37 C21.33 38.32 21.66 39.64 22 41 C22.66 41 23.32 41 24 41 C25.07525194 43.65228812 26.09456151 46.28368454 27 49 C27.66 49 28.32 49 29 49 C29 49.99 29 50.98 29 52 C29.66 52 30.32 52 31 52 C31.33 53.98 31.66 55.96 32 58 C32.66 58 33.32 58 34 58 C34.12375 58.53625 34.2475 59.0725 34.375 59.625 C35.12206016 62.4638286 36.05303364 65.22223202 37 68 C37.66 68 38.32 68 39 68 C39.12375 68.66 39.2475 69.32 39.375 70 C40.14520538 73.69698583 41.06950663 77.34005942 42 81 C46.9413142 80.44517477 51.12604946 79.37521676 55.73828125 77.53125 C56.34512253 77.29088013 56.95196381 77.05051025 57.57719421 76.80285645 C59.49189544 76.04236396 61.40212913 75.27129624 63.3125 74.5 C64.61235855 73.9823902 65.91248676 73.46545702 67.21289062 72.94921875 C73.17872918 70.63881945 73.17872918 70.63881945 79 68 C79.33804805 64.97167442 79.33804805 64.97167442 77.390625 63.24609375 C76.68421875 62.64925781 75.9778125 62.05242187 75.25 61.4375 C74.20585937 60.53837891 74.20585937 60.53837891 73.140625 59.62109375 C71.08261737 57.94454165 71.08261737 57.94454165 68.796875 56.97265625 C67 56 67 56 66 53 C64.44273141 51.55802374 64.44273141 51.55802374 62.5625 50.3125 C61.63630859 49.65701172 61.63630859 49.65701172 60.69140625 48.98828125 C59.03868895 47.8318364 59.03868895 47.8318364 57 48 C57 47.34 57 46.68 57 46 C54.56795991 44.02499924 51.80331198 42.49370583 49.125 40.875 C48.3201416 40.38580078 47.5152832 39.89660156 46.68603516 39.39257812 C38.45393431 34.50032165 29.87700997 30.56608722 21 27 C20.2874707 26.70867188 19.57494141 26.41734375 18.84082031 26.1171875 C15.30778135 24.7202908 12.84800049 24 9 24 Z " fill="#163850" transform="translate(253,2)"/>
<path d="M0 0 C0.91510849 -0.00524185 1.83021698 -0.0104837 2.77305603 -0.0158844 C4.7070108 -0.02229125 6.64100461 -0.02098495 8.57495117 -0.01245117 C11.49405883 -0.00400258 14.41116653 -0.03262122 17.33007812 -0.06445312 C33.43397494 -0.12434706 47.66166388 2.25049681 60.21484375 13.06640625 C61.46484375 14.43359375 61.46484375 14.43359375 61.46484375 16.43359375 C62.12484375 16.43359375 62.78484375 16.43359375 63.46484375 16.43359375 C63.46484375 17.09359375 63.46484375 17.75359375 63.46484375 18.43359375 C64.12484375 18.43359375 64.78484375 18.43359375 65.46484375 18.43359375 C65.95984375 21.40359375 65.95984375 21.40359375 66.46484375 24.43359375 C67.12484375 24.43359375 67.78484375 24.43359375 68.46484375 24.43359375 C68.46484375 25.42359375 68.46484375 26.41359375 68.46484375 27.43359375 C69.12484375 27.43359375 69.78484375 27.43359375 70.46484375 27.43359375 C70.95984375 31.88859375 70.95984375 31.88859375 71.46484375 36.43359375 C72.12484375 36.43359375 72.78484375 36.43359375 73.46484375 36.43359375 C73.97389032 38.30615792 74.4716683 40.18178716 74.96484375 42.05859375 C75.24328125 43.10273437 75.52171875 44.146875 75.80859375 45.22265625 C76.45754213 48.39786798 76.51214697 51.20514873 76.46484375 54.43359375 C78.22547197 54.43717628 78.22547197 54.43717628 80.02166843 54.44083118 C107.89020902 54.49820296 135.75867671 54.57094199 163.62712634 54.66258003 C167.05797644 54.67384806 170.48882695 54.68498654 173.91967773 54.69604492 C174.60269234 54.69824861 175.28570695 54.70045229 175.98941898 54.70272275 C187.04567169 54.73808583 198.10192433 54.76295554 209.15821261 54.78394077 C220.50474831 54.80571072 231.85119972 54.83899467 243.19767755 54.88229531 C249.57008643 54.90624916 255.94241413 54.92496382 262.31486702 54.93120766 C268.3123927 54.93724863 274.3097106 54.95721313 280.30715942 54.98786926 C282.50857031 54.99666526 284.71000833 55.00036885 286.91143608 54.99860191 C289.91764345 54.99695083 292.92321621 55.01363495 295.92933655 55.03486633 C296.79997382 55.03001876 297.67061109 55.02517118 298.5676313 55.02017671 C303.93793607 55.08274734 307.66576215 55.99593811 312.46484375 58.43359375 C312.46484375 59.09359375 312.46484375 59.75359375 312.46484375 60.43359375 C313.12484375 60.43359375 313.78484375 60.43359375 314.46484375 60.43359375 C314.46484375 61.09359375 314.46484375 61.75359375 314.46484375 62.43359375 C315.12484375 62.43359375 315.78484375 62.43359375 316.46484375 62.43359375 C317.53384405 65.64059464 317.59816904 68.00351444 317.58984375 71.37109375 C317.59242188 72.41136719 317.595 73.45164062 317.59765625 74.5234375 C317.48416398 77.01025346 317.18412946 79.06451782 316.46484375 81.43359375 C315.80484375 81.43359375 315.14484375 81.43359375 314.46484375 81.43359375 C314.42746094 81.99046875 314.39007813 82.54734375 314.3515625 83.12109375 C313.77327366 89.8337799 311.92139465 95.12074455 309.2265625 101.25 C306.78022911 106.90038066 304.89610704 112.15494382 303.8671875 118.23046875 C303.34849436 121.07069136 302.46152779 123.72830851 301.46484375 126.43359375 C300.80484375 126.43359375 300.14484375 126.43359375 299.46484375 126.43359375 C299.36171875 127.65046875 299.25859375 128.86734375 299.15234375 130.12109375 C298.82960215 133.92944459 297.45186378 136.19981605 295.46484375 139.43359375 C294.69019971 141.35336376 293.96017529 143.29178278 293.27734375 145.24609375 C292.93316406 146.22191406 292.58898437 147.19773438 292.234375 148.203125 C291.98042969 148.93917969 291.72648437 149.67523438 291.46484375 150.43359375 C290.80484375 150.43359375 290.14484375 150.43359375 289.46484375 150.43359375 C289.37074219 151.16964844 289.27664063 151.90570313 289.1796875 152.6640625 C288.35951379 155.84167539 287.21574442 157.3302086 285.02734375 159.74609375 C284.40988281 160.44347656 283.79242188 161.14085937 283.15625 161.859375 C281.46484375 163.43359375 281.46484375 163.43359375 279.46484375 163.43359375 C279.13484375 164.42359375 278.80484375 165.41359375 278.46484375 166.43359375 C276.49609375 167.96875 276.49609375 167.96875 273.96484375 169.49609375 C273.15015625 170.00269531 272.33546875 170.50929687 271.49609375 171.03125 C263.05095052 174.93821704 254.3992505 174.72059323 245.27539062 174.69238281 C243.86011068 174.69509762 242.44483216 174.69866129 241.02955627 174.70300293 C237.20932317 174.712071 233.38919886 174.70860587 229.568964 174.70224476 C225.55732572 174.69715572 221.5456963 174.70188425 217.53405762 174.70501709 C210.79921814 174.7086483 204.06442263 174.70387986 197.32958984 174.69433594 C189.56050006 174.68345301 181.79151528 174.68697919 174.02242804 174.69798875 C167.33340482 174.70708574 160.64441309 174.70833513 153.95538568 174.70311141 C149.96848487 174.70000495 145.9816333 174.69954577 141.99473572 174.70618439 C138.24523478 174.71199243 134.49586828 174.70789817 130.74638176 174.69639587 C128.72643591 174.69252119 126.7064786 174.69840535 124.6865387 174.70465088 C111.55907083 174.64393805 101.78183617 172.47457383 91.71484375 163.80078125 C90.46484375 162.43359375 90.46484375 162.43359375 90.46484375 160.43359375 C89.80484375 160.43359375 89.14484375 160.43359375 88.46484375 160.43359375 C86.0332377 157.0667546 85.46484375 155.70009011 85.46484375 151.43359375 C84.80484375 151.43359375 84.14484375 151.43359375 83.46484375 151.43359375 C82.45243471 149.10505297 81.45429645 146.77191573 80.46484375 144.43359375 C80.16320312 143.73105469 79.8615625 143.02851563 79.55078125 142.3046875 C76.8458976 135.80636946 74.75549803 129.15039144 72.703125 122.42578125 C71.30805458 117.87183374 69.75078017 113.37719248 68.1640625 108.88671875 C67.46484375 106.43359375 67.46484375 106.43359375 67.46484375 102.43359375 C66.80484375 102.43359375 66.14484375 102.43359375 65.46484375 102.43359375 C64.95896228 100.51847103 64.46035984 98.60142453 63.96484375 96.68359375 C63.68640625 95.61625 63.40796875 94.54890625 63.12109375 93.44921875 C62.46484375 90.43359375 62.46484375 90.43359375 62.46484375 86.43359375 C61.80484375 86.43359375 61.14484375 86.43359375 60.46484375 86.43359375 C57.02065241 76.06001744 57.02065241 76.06001744 57.46484375 70.43359375 C56.80484375 70.43359375 56.14484375 70.43359375 55.46484375 70.43359375 C54.75118261 68.05472328 54.03757118 65.67583807 53.32421875 63.296875 C52.77310005 61.4606477 52.221096 59.62468576 51.66796875 57.7890625 C51.16323319 56.1126194 50.66057966 54.43554784 50.16015625 52.7578125 C49.7240638 51.30008775 49.28223303 49.8440542 48.83203125 48.390625 C47.86365286 45.1922485 47.46484375 42.83122621 47.46484375 39.43359375 C46.80484375 39.43359375 46.14484375 39.43359375 45.46484375 39.43359375 C45.2946875 38.80710938 45.12453125 38.180625 44.94921875 37.53515625 C44.706875 36.71789062 44.46453125 35.900625 44.21484375 35.05859375 C43.86679688 33.84042969 43.86679688 33.84042969 43.51171875 32.59765625 C42.17789764 29.84042903 41.29809842 29.52696384 38.46484375 28.43359375 C37.4078125 27.92989258 36.35078125 27.42619141 35.26171875 26.90722656 C31.59523113 25.33664762 28.39523959 25.02367738 24.38671875 24.95703125 C23.40859222 24.93366196 23.40859222 24.93366196 22.41070557 24.90982056 C20.34543069 24.86278576 18.28047848 24.83475943 16.21484375 24.80859375 C-7.70268945 24.37774935 -7.70268945 24.37774935 -13.53515625 22.43359375 C-13.53515625 21.77359375 -13.53515625 21.11359375 -13.53515625 20.43359375 C-14.17839844 20.19382812 -14.82164063 19.9540625 -15.484375 19.70703125 C-17.53515625 18.43359375 -17.53515625 18.43359375 -18.1796875 16.41015625 C-18.23511719 15.63414063 -18.29054688 14.858125 -18.34765625 14.05859375 C-18.41597656 13.28773437 -18.48429687 12.516875 -18.5546875 11.72265625 C-18.53531434 9.45212154 -18.18352701 7.60142882 -17.53515625 5.43359375 C-16.87515625 5.43359375 -16.21515625 5.43359375 -15.53515625 5.43359375 C-15.53515625 4.77359375 -15.53515625 4.11359375 -15.53515625 3.43359375 C-10.25341594 0.19760926 -6.00239066 -0.02028128 0 0 Z M86.46484375 78.43359375 C86.34299067 83.80541754 86.34299067 83.80541754 87.83984375 88.30859375 C89.46268756 92.29263686 90.49238762 96.24455197 91.46484375 100.43359375 C92.12484375 100.43359375 92.78484375 100.43359375 93.46484375 100.43359375 C93.53832031 101.53767578 93.53832031 101.53767578 93.61328125 102.6640625 C93.68804687 103.63988281 93.7628125 104.61570312 93.83984375 105.62109375 C93.90945312 106.58402344 93.9790625 107.54695313 94.05078125 108.5390625 C94.46700228 111.44868313 95.26358471 113.76250149 96.46484375 116.43359375 C97.12484375 116.43359375 97.78484375 116.43359375 98.46484375 116.43359375 C98.58859375 118.38265625 98.58859375 118.38265625 98.71484375 120.37109375 C99.20053353 124.79780915 100.4946255 128.24768199 102.421875 132.234375 C103.42760452 134.35507058 104.24340389 136.47280038 105.02734375 138.68359375 C107.04882322 144.07420567 108.8734043 147.70555526 114.13644218 150.58873177 C119.20809599 152.42898456 124.68842765 151.97571476 130.01586914 151.93530273 C131.38646498 151.93909024 132.75705699 151.94459383 134.12763977 151.95167542 C137.83428558 151.96559002 141.54046513 151.95448938 145.24708486 151.9379642 C149.13334943 151.92407233 153.01958806 151.93057837 156.90586853 151.93409729 C163.42991617 151.93679583 169.95377944 151.92335346 176.4777832 151.90014648 C184.0129161 151.87352775 191.54774106 151.87179447 199.08290488 151.88353485 C206.34286619 151.89432508 213.60271648 151.88811653 220.86266899 151.87397957 C223.94746981 151.86823167 227.03218906 151.86829298 230.11699104 151.87304497 C233.75081038 151.87782789 237.38429377 151.8676591 241.01804924 151.84609032 C242.98251619 151.83789956 244.94702721 151.84436021 246.91149902 151.85128784 C248.08761246 151.84138321 249.26372589 151.83147858 250.47547913 151.8212738 C251.49326478 151.81884391 252.51105043 151.81641401 253.55967808 151.81391048 C258.91250736 151.11316885 263.07679983 148.60349396 266.46484375 144.43359375 C266.46484375 143.44359375 266.46484375 142.45359375 266.46484375 141.43359375 C267.12484375 141.43359375 267.78484375 141.43359375 268.46484375 141.43359375 C268.46484375 140.44359375 268.46484375 139.45359375 268.46484375 138.43359375 C269.12484375 138.43359375 269.78484375 138.43359375 270.46484375 138.43359375 C270.73039063 137.55316406 270.9959375 136.67273438 271.26953125 135.765625 C271.62273437 134.60417969 271.9759375 133.44273437 272.33984375 132.24609375 C272.68789063 131.09753906 273.0359375 129.94898438 273.39453125 128.765625 C274.46484375 125.43359375 274.46484375 125.43359375 275.52734375 122.80859375 C276.47025634 120.41988186 277.06517506 118.13200821 277.58984375 115.62109375 C277.84121094 114.43580078 277.84121094 114.43580078 278.09765625 113.2265625 C278.21882812 112.63488281 278.34 112.04320312 278.46484375 111.43359375 C279.12484375 111.43359375 279.78484375 111.43359375 280.46484375 111.43359375 C280.59761719 110.79550781 280.73039063 110.15742188 280.8671875 109.5 C281.13208984 108.26056641 281.13208984 108.26056641 281.40234375 106.99609375 C281.57636719 106.17238281 281.75039063 105.34867188 281.9296875 104.5 C282.46484375 102.43359375 282.46484375 102.43359375 283.46484375 101.43359375 C283.50548207 99.7674226 283.50756475 98.0997128 283.46484375 96.43359375 C284.12484375 96.43359375 284.78484375 96.43359375 285.46484375 96.43359375 C285.59761719 95.8303125 285.73039063 95.22703125 285.8671875 94.60546875 C286.04378906 93.80625 286.22039062 93.00703125 286.40234375 92.18359375 C286.57636719 91.3946875 286.75039063 90.60578125 286.9296875 89.79296875 C287.41239975 87.66480672 287.92647553 85.54826533 288.46484375 83.43359375 C289.12484375 83.43359375 289.78484375 83.43359375 290.46484375 83.43359375 C290.46484375 81.78359375 290.46484375 80.13359375 290.46484375 78.43359375 C223.14484375 78.43359375 155.82484375 78.43359375 86.46484375 78.43359375 Z " fill="#FE682D" transform="translate(18.53515625,77.56640625)"/>
<path d="M0 0 C0 0.66 0 1.32 0 2 C0.99 2.33 1.98 2.66 3 3 C6.63042476 7.90733278 8.32496325 13.93401942 8 20 C7.25032433 22.58116179 6.2725087 24.60768364 5 27 C4.34 27 3.68 27 3 27 C2.79375 27.5775 2.5875 28.155 2.375 28.75 C-0.01964374 32.66850794 -3.72751322 34.57583774 -8 36 C-14.8743199 36.7569197 -21.21296287 36.04094834 -27 32 C-28.25 29.859375 -28.25 29.859375 -29 28 C-29.66 28 -30.32 28 -31 28 C-34 24.53846154 -34 24.53846154 -34 22 C-35.32 22 -36.64 22 -38 22 C-38 23.98 -38 25.96 -38 28 C-41.64219862 24.35780138 -41.9917982 19.30365053 -42.02294922 14.35229492 C-42.01537598 13.2460376 -42.00780273 12.13978027 -42 11 C-43.73733398 11.04543945 -43.73733398 11.04543945 -45.50976562 11.09179688 C-49.8858529 11.20569661 -54.26200674 11.31684657 -58.63818359 11.42724609 C-60.51743401 11.47502093 -62.39666665 11.52350103 -64.27587891 11.57275391 C-75.85398122 11.8756514 -87.41757999 12.07419344 -99 12 C-99 11.67 -99 11.34 -99 11 C-91.56880967 10.21794752 -84.22056851 9.82988216 -76.75 9.796875 C-75.72946533 9.79117493 -74.70893066 9.78547485 -73.6574707 9.77960205 C-71.52312229 9.77023513 -69.38875996 9.76365159 -67.25439453 9.75976562 C-63.98054695 9.74994163 -60.7072977 9.71879456 -57.43359375 9.6875 C-55.3515662 9.68097966 -53.2695342 9.67572541 -51.1875 9.671875 C-50.20942383 9.6595282 -49.23134766 9.6471814 -48.22363281 9.63446045 C-46.8657666 9.6389621 -46.8657666 9.6389621 -45.48046875 9.64355469 C-44.68535889 9.63990906 -43.89024902 9.63626343 -43.07104492 9.63250732 C-40.45237986 10.09717143 -39.60644273 10.91411684 -38 13 C-37.505 14.485 -37.505 14.485 -37 16 C-34.81959539 15.18419851 -34.81959539 15.18419851 -34.18359375 13.00390625 C-33.93738281 12.19824219 -33.69117188 11.39257812 -33.4375 10.5625 C-32.06329114 6.12658228 -32.06329114 6.12658228 -31 4 C-30.34 4 -29.68 4 -29 4 C-28.67 3.01 -28.34 2.02 -28 1 C-26.29296875 -0.1328125 -26.29296875 -0.1328125 -24.1875 -1.125 C-23.50042969 -1.45757812 -22.81335938 -1.79015625 -22.10546875 -2.1328125 C-14.62570395 -5.21353195 -6.89225162 -4.17162598 0 0 Z " fill="#FE662B" transform="translate(285,272)"/>
<path d="M0 0 C2.75602998 2.00960519 3.97474873 2.99782939 5 6.1875 C5.66 6.1875 6.32 6.1875 7 6.1875 C9.73501569 12.06231369 9.64958882 17.81992566 9 24.1875 C6.51511036 29.43337813 2.83330628 32.73255894 -2.3125 35.375 C-5.87021134 36.45058715 -9.30224262 36.81145688 -13 37.1875 C-12.46890625 37.51363281 -11.9378125 37.83976562 -11.390625 38.17578125 C-7.81763269 40.38608124 -4.29917687 42.57565164 -1 45.1875 C-2.65 45.1875 -4.3 45.1875 -6 45.1875 C-6 44.5275 -6 43.8675 -6 43.1875 C-7.0828125 43.3421875 -7.0828125 43.3421875 -8.1875 43.5 C-11.49301797 43.13272023 -12.2136429 42.14629859 -14.35546875 39.74609375 C-17.30655661 36.9492195 -20.88141958 35.03091723 -24.328125 32.90234375 C-27.47485157 30.88273415 -30.21374355 28.67253953 -33 26.1875 C-30 26.1875 -30 26.1875 -28 27.1875 C-28.15597656 26.58164062 -28.31195313 25.97578125 -28.47265625 25.3515625 C-30.03360636 18.63224082 -31.41116453 11.05857511 -27.57421875 4.8984375 C-27.05472656 4.33382813 -26.53523437 3.76921875 -26 3.1875 C-25.34 3.1875 -24.68 3.1875 -24 3.1875 C-24 2.5275 -24 1.8675 -24 1.1875 C-16.01615656 -2.98587271 -8.35303691 -4.44794838 0 0 Z " fill="#FE672D" transform="translate(166,269.8125)"/>
<path d="M0 0 C68.97 0 137.94 0 209 0 C208.67 1.65 208.34 3.3 208 5 C207.67 3.68 207.34 2.36 207 1 C205.73280971 1.00911329 205.73280971 1.00911329 204.44001961 1.01841068 C183.71534873 1.16702715 162.99063998 1.30868809 142.26587105 1.4429636 C132.24281399 1.50806406 122.2197815 1.57536845 112.19677734 1.64819336 C103.44274919 1.71179221 94.68870315 1.77091803 85.9346112 1.82505554 C81.31575478 1.8537658 76.69693404 1.88445429 72.07812881 1.92053413 C49.02664579 2.0989154 26.03698115 1.87116914 3 1 C3 2.98 3 4.96 3 7 C1 4 1 4 0 0 Z " fill="#FD895D" transform="translate(102,155)"/>
<path d="M0 0 C5.38375429 4.35177115 6.83187747 9.27112315 8.828125 15.76171875 C9.16732971 16.82146408 9.50653442 17.88120941 9.85601807 18.97306824 C10.91976368 22.31063696 11.96136 25.65454326 13 29 C13.64832916 31.05964674 14.29739862 33.11906062 14.94726562 35.17822266 C16.56412309 40.31902335 18.16300362 45.46524995 19.75775146 50.61294556 C26.13365644 71.17236627 32.78469233 91.60892387 39.92529297 111.9152832 C40.97733888 114.9349561 41.99592248 117.96407828 43 121 C42.34 121 41.68 121 41 121 C39.98759096 118.67145922 38.9894527 116.33832198 38 114 C37.54753906 112.94619141 37.54753906 112.94619141 37.0859375 111.87109375 C34.38105385 105.37277571 32.29065428 98.71679769 30.23828125 91.9921875 C28.84321083 87.43823999 27.28593642 82.94359873 25.69921875 78.453125 C25 76 25 76 25 72 C24.34 72 23.68 72 23 72 C22.49411853 70.08487728 21.99551609 68.16783078 21.5 66.25 C21.2215625 65.18265625 20.943125 64.1153125 20.65625 63.015625 C20 60 20 60 20 56 C19.34 56 18.68 56 18 56 C14.55580866 45.62642369 14.55580866 45.62642369 15 40 C14.34 40 13.68 40 13 40 C12.28633886 37.62112953 11.57272743 35.24224432 10.859375 32.86328125 C10.3082563 31.02705395 9.75625225 29.19109201 9.203125 27.35546875 C8.69838944 25.67902565 8.19573591 24.00195409 7.6953125 22.32421875 C7.25922005 20.866494 6.81738928 19.41046045 6.3671875 17.95703125 C5.39880911 14.75865475 5 12.39763246 5 9 C4.34 9 3.68 9 3 9 C2.01 6.03 1.02 3.06 0 0 Z " fill="#FDF6F2" transform="translate(61,108)"/>
<path d="M0 0 C0.99 0.495 0.99 0.495 2 1 C0.8553125 2.051875 0.8553125 2.051875 -0.3125 3.125 C-3.92055561 6.98478042 -5.77638673 10.02474947 -6.375 15.3125 C-5.91444812 19.84126018 -4.61370124 23.76403425 -3 28 C-3.66 28 -4.32 28 -5 28 C-8 24.53846154 -8 24.53846154 -8 22 C-9.32 22 -10.64 22 -12 22 C-12 23.98 -12 25.96 -12 28 C-15.64219862 24.35780138 -15.9917982 19.30365053 -16.02294922 14.35229492 C-16.01537598 13.2460376 -16.00780273 12.13978027 -16 11 C-17.73733398 11.04543945 -17.73733398 11.04543945 -19.50976562 11.09179688 C-23.8858529 11.20569661 -28.26200674 11.31684657 -32.63818359 11.42724609 C-34.51743401 11.47502093 -36.39666665 11.52350103 -38.27587891 11.57275391 C-49.85398122 11.8756514 -61.41757999 12.07419344 -73 12 C-73 11.67 -73 11.34 -73 11 C-65.56880967 10.21794752 -58.22056851 9.82988216 -50.75 9.796875 C-49.72946533 9.79117493 -48.70893066 9.78547485 -47.6574707 9.77960205 C-45.52312229 9.77023513 -43.38875996 9.76365159 -41.25439453 9.75976562 C-37.98054695 9.74994163 -34.7072977 9.71879456 -31.43359375 9.6875 C-29.3515662 9.68097966 -27.2695342 9.67572541 -25.1875 9.671875 C-24.20942383 9.6595282 -23.23134766 9.6471814 -22.22363281 9.63446045 C-20.8657666 9.6389621 -20.8657666 9.6389621 -19.48046875 9.64355469 C-18.68535889 9.63990906 -17.89024902 9.63626343 -17.07104492 9.63250732 C-14.45237986 10.09717143 -13.60644273 10.91411684 -12 13 C-11.505 14.485 -11.505 14.485 -11 16 C-8.81959539 15.18419851 -8.81959539 15.18419851 -8.18359375 13.00390625 C-7.93738281 12.19824219 -7.69117188 11.39257812 -7.4375 10.5625 C-6.06329114 6.12658228 -6.06329114 6.12658228 -5 4 C-4.34 4 -3.68 4 -3 4 C-2.67 3.01 -2.34 2.02 -2 1 C-1.34 0.67 -0.68 0.34 0 0 Z " fill="#EFF2F3" transform="translate(259,272)"/>
<path d="M0 0 C1.67542976 0.28604898 3.34385343 0.61781233 5 1 C5.50588147 2.91512272 6.00448391 4.83216922 6.5 6.75 C6.7784375 7.81734375 7.056875 8.8846875 7.34375 9.984375 C8 13 8 13 8 17 C8.66 17 9.32 17 10 17 C11.54642808 22.6702363 12.48517081 28.147205 13 34 C10.89925872 30.84888808 9.97687327 28.18412845 8.8359375 24.58203125 C8.43632813 23.32841797 8.03671875 22.07480469 7.625 20.78320312 C7.20823128 19.45966755 6.79156593 18.13609942 6.375 16.8125 C5.95095317 15.47707618 5.52647885 14.14178803 5.1015625 12.80664062 C4.06349021 9.53907217 3.02982222 6.27017611 2 3 C-0.32488859 11.58645828 -0.66235105 20.22779333 -1.125 29.0625 C-1.21156144 30.61136617 -1.29879549 32.16019491 -1.38671875 33.70898438 C-1.59890498 37.47226936 -1.80197559 41.23594435 -2 45 C-2.33 45 -2.66 45 -3 45 C-3.144375 43.865625 -3.28875 42.73125 -3.4375 41.5625 C-3.61171478 38.19222799 -3.61171478 38.19222799 -5 37 C-5.0979057 35.50261876 -5.12974864 34.00057108 -5.125 32.5 C-5.12757812 31.6853125 -5.13015625 30.870625 -5.1328125 30.03125 C-5 28 -5 28 -4 27 C-3.86762997 25.668108 -3.79680374 24.32995352 -3.75390625 22.9921875 C-3.70459961 21.75855469 -3.70459961 21.75855469 -3.65429688 20.5 C-3.59392225 18.77354256 -3.53654516 17.04697722 -3.48242188 15.3203125 C-2.97439904 2.97439904 -2.97439904 2.97439904 0 0 Z " fill="#F1F5F7" transform="translate(59,140)"/>
<path d="M0 0 C27.06 0 54.12 0 82 0 C82 0.33 82 0.66 82 1 C55.61545581 2.46386139 29.38980934 1.87895901 3 1 C3 2.98 3 4.96 3 7 C1 4 1 4 0 0 Z " fill="#FDAF92" transform="translate(102,155)"/>
<path d="M0 0 C0.2475 0.53625 0.495 1.0725 0.75 1.625 C2.04181958 4.18746595 2.04181958 4.18746595 4.125 7.125 C6 10 6 10 6 12 C6.78375 12.309375 7.5675 12.61875 8.375 12.9375 C11 14 11 14 13 15 C14.87056791 15.2275015 16.74685958 15.40962811 18.625 15.5625 C19.62789062 15.64628906 20.63078125 15.73007812 21.6640625 15.81640625 C22.82035156 15.90728516 22.82035156 15.90728516 24 16 C24 16.33 24 16.66 24 17 C20.04 17.495 20.04 17.495 16 18 C16.53109375 18.32613281 17.0621875 18.65226562 17.609375 18.98828125 C21.18236731 21.19858124 24.70082313 23.38815164 28 26 C26.35 26 24.7 26 23 26 C23 25.34 23 24.68 23 24 C22.278125 24.103125 21.55625 24.20625 20.8125 24.3125 C17.50698203 23.94522023 16.7863571 22.95879859 14.64453125 20.55859375 C11.69344339 17.7617195 8.11858042 15.84341723 4.671875 13.71484375 C1.52514843 11.69523415 -1.21374355 9.48503953 -4 7 C-1 7 -1 7 1 8 C0.67 7.34 0.34 6.68 0 6 C-0.039992 4.00039988 -0.04346799 1.99952758 0 0 Z " fill="#F0E8E5" transform="translate(137,289)"/>
<path d="M0 0 C0.66 0 1.32 0 2 0 C2 0.66 2 1.32 2 2 C2.99 2.33 3.98 2.66 5 3 C6.31640625 4.59375 6.31640625 4.59375 7.5625 6.5 C9.31619395 9.25536594 9.31619395 9.25536594 12 11 C14.0095568 13.93704456 15 15.39222485 15 19 C15.66 19 16.32 19 17 19 C17.33 20.65 17.66 22.3 18 24 C14.05187322 22.68395774 12.85844987 20.20848226 10.6875 16.875 C8.11280267 13.01532482 5.55902134 9.32353786 2.4375 5.875 C0 3 0 3 0 0 Z " fill="#757D89" transform="translate(351,59)"/>
<path d="M0 0 C2.16272596 2.16272596 2.56603668 3.27987075 3.4375 6.1484375 C3.81914307 7.40116455 3.81914307 7.40116455 4.20849609 8.67919922 C4.46969238 9.56881348 4.73088867 10.45842773 5 11.375 C5.2676416 12.27879395 5.5352832 13.18258789 5.81103516 14.11376953 C8.30410043 22.72323707 10.1311629 31.00222516 10 40 C9.34 39.67 8.68 39.34 8 39 C8 36.36 8 33.72 8 31 C7.34 31 6.68 31 6 31 C5.67 26.05 5.34 21.1 5 16 C4.34 16 3.68 16 3 16 C2.87625 14.9275 2.7525 13.855 2.625 12.75 C2.21826684 9.17614517 2.21826684 9.17614517 0.9375 6.875 C-0.25409043 4.49181915 -0.14598495 2.62772904 0 0 Z " fill="#EAEFF0" transform="translate(365,118)"/>
<path d="M0 0 C4.46573511 -0.02479481 8.9314333 -0.04290486 13.3972168 -0.05493164 C14.91512755 -0.05994766 16.4330335 -0.06676203 17.95092773 -0.07543945 C20.13787016 -0.08762497 22.32474846 -0.09325572 24.51171875 -0.09765625 C25.82615967 -0.10289307 27.14060059 -0.10812988 28.49487305 -0.11352539 C31.48205125 -0.01677552 34.10592611 0.29656236 37 1 C37 1.33 37 1.66 37 2 C32.8559889 2.16882299 28.71175936 2.32924147 24.56713867 2.48217773 C23.15982506 2.53525651 21.75259322 2.59055488 20.34545898 2.64819336 C18.31251659 2.73106765 16.2794053 2.80571996 14.24609375 2.87890625 C13.02591553 2.9260376 11.8057373 2.97316895 10.54858398 3.02172852 C6.94092605 2.99963828 3.55494565 2.59215864 0 2 C0 1.34 0 0.68 0 0 Z " fill="#FE4F10" transform="translate(12,99)"/>
<path d="M0 0 C3.62838099 10.88514298 -4.67343717 28.4927983 -8 39 C-8.33 39 -8.66 39 -9 39 C-8.67 35.7 -8.34 32.4 -8 29 C-7.34 29 -6.68 29 -6 29 C-6.061875 27.39125 -6.061875 27.39125 -6.125 25.75 C-6 22 -6 22 -5.03125 20.125 C-3.73826996 17.4606775 -3.58533598 15.19470374 -3.375 12.25 C-3.26285156 10.77273437 -3.26285156 10.77273437 -3.1484375 9.265625 C-3.09945313 8.51796875 -3.05046875 7.7703125 -3 7 C-2.34 7 -1.68 7 -1 7 C-1.020625 6.030625 -1.04125 5.06125 -1.0625 4.0625 C-1 1 -1 1 0 0 Z " fill="#F5F7F8" transform="translate(374,191)"/>
<path d="M0 0 C4.39599495 0.1411912 8.79175213 0.28883008 13.1875 0.4375 C14.41404297 0.47681641 15.64058594 0.51613281 16.90429688 0.55664062 C24.95775381 0.83288057 32.97118779 1.31229827 41 2 C41 2.33 41 2.66 41 3 C36.28606679 3.04970487 31.5722886 3.085863 26.8581543 3.10986328 C25.25689026 3.11987623 23.65564429 3.1334906 22.05444336 3.15087891 C19.74328124 3.17533565 17.43236238 3.18653029 15.12109375 3.1953125 C14.0597245 3.21079636 14.0597245 3.21079636 12.97691345 3.22659302 C8.24165735 3.22764468 4.44683503 2.46788729 0 1 C0 0.67 0 0.34 0 0 Z " fill="#313F53" transform="translate(201,345)"/>
<path d="M0 0 C1.13643966 3.40931897 0.86747764 4.00335456 -0.4375 7.1875 C-0.72496094 7.90292969 -1.01242187 8.61835938 -1.30859375 9.35546875 C-1.53675781 9.89816406 -1.76492188 10.44085938 -2 11 C-2.66 11 -3.32 11 -4 11 C-4.09410156 11.84949219 -4.18820312 12.69898438 -4.28515625 13.57421875 C-5.09721747 17.46590014 -6.5252914 20.33395004 -8.4375 23.8125 C-9.05496094 24.95332031 -9.67242187 26.09414063 -10.30859375 27.26953125 C-12 30 -12 30 -14 31 C-11.6235249 21.5774847 -7.91068596 12.75881593 -2 5 C-1.28837557 3.35202764 -0.60968047 1.68834592 0 0 Z " fill="#9BA3AB" transform="translate(383,234)"/>
<path d="M0 0 C0.44730469 0.39832031 0.89460938 0.79664063 1.35546875 1.20703125 C5.20331789 4.58276591 5.20331789 4.58276591 9.4375 7.4375 C14.98845874 10.82223094 20.12672386 15.07386796 23 21 C21.35 20.34 19.7 19.68 18 19 C18 18.34 18 17.68 18 17 C17.01 16.67 16.02 16.34 15 16 C15 15.34 15 14.68 15 14 C12.525 13.01 12.525 13.01 10 12 C10 11.34 10 10.68 10 10 C9.195625 9.690625 9.195625 9.690625 8.375 9.375 C5.08021991 7.46749574 2.40636372 4.95180616 0 2 C0 1.34 0 0.68 0 0 Z " fill="#A8AFB5" transform="translate(104,294)"/>
<path d="M0 0 C4.1998609 3.82884845 6.90476132 7.78052423 9.625 12.75 C10.21365845 13.80864258 10.21365845 13.80864258 10.81420898 14.88867188 C13.48967724 19.80093308 15.54822316 24.58003315 17 30 C16.34 30 15.68 30 15 30 C12.96564469 26.27034861 12 24.33094958 12 20 C11.34 20 10.68 20 10 20 C10 18.68 10 17.36 10 16 C9.34 16 8.68 16 8 16 C7.67 14.35 7.34 12.7 7 11 C6.34 11 5.68 11 5 11 C2 5.25 2 5.25 2 3 C1.34 3 0.68 3 0 3 C0 2.01 0 1.02 0 0 Z " fill="#E8EEF1" transform="translate(348,87)"/>
<path d="M0 0 C0.66 0 1.32 0 2 0 C3.45890406 4.2081357 4.91702242 8.41654323 6.375 12.625 C6.7875 13.81480469 7.2 15.00460938 7.625 16.23046875 C8.02460937 17.38417969 8.42421875 18.53789062 8.8359375 19.7265625 C9.20251465 20.78439941 9.5690918 21.84223633 9.94677734 22.93212891 C10.98248274 25.948975 11.99610297 28.97243702 13 32 C12.34 32 11.68 32 11 32 C9.98758143 29.67143729 8.98850092 27.33875111 8 25 C7.53013672 23.89398438 7.53013672 23.89398438 7.05078125 22.765625 C0 5.70998024 0 5.70998024 0 0 Z " fill="#FDF0E9" transform="translate(91,197)"/>
<path d="M0 0 C0.66 0.33 1.32 0.66 2 1 C3.74076947 7.09923738 2.92004922 11.51030746 0 17 C-0.66 16.67 -1.32 16.34 -2 16 C-2 11.05 -2 6.1 -2 1 C-1.34 0.67 -0.68 0.34 0 0 Z " fill="#FC9D79" transform="translate(290,282)"/>
<path d="M0 0 C0.99 0.495 0.99 0.495 2 1 C2 1.66 2 2.32 2 3 C2.66 3 3.32 3 4 3 C4.33 4.32 4.66 5.64 5 7 C5.66 7 6.32 7 7 7 C7 7.66 7 8.32 7 9 C7.99 9.33 8.98 9.66 10 10 C10 10.66 10 11.32 10 12 C10.66 12 11.32 12 12 12 C12 12.66 12 13.32 12 14 C12.66 14 13.32 14 14 14 C15.625 15.375 15.625 15.375 17 17 C17 17.66 17 18.32 17 19 C10.40167063 16.07574039 3.86744899 10.05339843 0 4 C0 2.68 0 1.36 0 0 Z " fill="#8A919B" transform="translate(108,269)"/>
<path d="M0 0 C2.43032839 7.42986107 -1.04217851 16.09841651 -4 23 C-4.28359375 23.67546875 -4.5671875 24.3509375 -4.859375 25.046875 C-5.56149058 26.70280797 -6.27907406 28.35216928 -7 30 C-8.35745821 27.28508359 -7.62683621 26.2822196 -6.6875 23.4375 C-5.63324164 20.11730172 -4.70278917 16.84933121 -4 13.4375 C-3.02883781 8.82859468 -1.57267282 4.43493736 0 0 Z " fill="#FDA284" transform="translate(333,153)"/>
<path d="M0 0 C3.625 1.5625 3.625 1.5625 6 3 C6 3.66 6 4.32 6 5 C6.99 5.33 7.98 5.66 9 6 C9.99 7.485 9.99 7.485 11 9 C10.67 9.99 10.34 10.98 10 12 C8.8553125 10.824375 8.8553125 10.824375 7.6875 9.625 C5.09108195 6.92742283 5.09108195 6.92742283 2 5 C2 4.01 2 3.02 2 2 C-3.28 1.67 -8.56 1.34 -14 1 C-8.88799776 -1.55600112 -5.49503644 -1.08863929 0 0 Z " fill="#FDD6C6" transform="translate(279,269)"/>
<path d="M0 0 C0.66 0 1.32 0 2 0 C1.36306741 3.5922998 0.4129328 6.87918241 -0.84765625 10.30078125 C-1.20537109 11.27724609 -1.56308594 12.25371094 -1.93164062 13.25976562 C-2.49141602 14.77086914 -2.49141602 14.77086914 -3.0625 16.3125 C-3.62807617 17.85260742 -3.62807617 17.85260742 -4.20507812 19.42382812 C-5.13346068 21.95043887 -6.06520129 24.47575761 -7 27 C-8.30486329 22.76378081 -7.33664545 20.45692734 -5.75 16.3125 C-5.28722656 15.07886719 -4.82445312 13.84523437 -4.34765625 12.57421875 C-3.90292969 11.39472656 -3.45820313 10.21523437 -3 9 C-1.97084965 6.00865637 -0.9848248 3.00630728 0 0 Z " fill="#FDF5F0" transform="translate(297,189)"/>
<path d="M0 0 C0.33 0 0.66 0 1 0 C1 8.91 1 17.82 1 27 C0.67 27 0.34 27 0 27 C-0.144375 25.865625 -0.28875 24.73125 -0.4375 23.5625 C-0.61171478 20.19222799 -0.61171478 20.19222799 -2 19 C-2.0979057 17.50261876 -2.12974864 16.00057108 -2.125 14.5 C-2.12757812 13.6853125 -2.13015625 12.870625 -2.1328125 12.03125 C-2 10 -2 10 -1 9 C-0.76807135 7.48530552 -0.58784762 5.96245438 -0.4375 4.4375 C-0.35371094 3.61121094 -0.26992188 2.78492188 -0.18359375 1.93359375 C-0.12300781 1.29550781 -0.06242187 0.65742188 0 0 Z " fill="#FEFEFE" transform="translate(56,158)"/>
<path d="M0 0 C1.32 0.33 2.64 0.66 4 1 C4 1.66 4 2.32 4 3 C4.66 3 5.32 3 6 3 C6 3.66 6 4.32 6 5 C6.66 5 7.32 5 8 5 C9.09506492 8.28519475 9.09960608 10.73663415 9.0625 14.1875 C9.05347656 15.27417969 9.04445313 16.36085937 9.03515625 17.48046875 C9.02355469 18.31191406 9.01195312 19.14335937 9 20 C8.67 20 8.34 20 8 20 C7.67 17.69 7.34 15.38 7 13 C6.67 13 6.34 13 6 13 C5.62875 11.3603125 5.62875 11.3603125 5.25 9.6875 C3.93240001 5.80058004 3.24358975 5.16239317 0 3 C0 2.01 0 1.02 0 0 Z " fill="#FCB198" transform="translate(327,135)"/>
<path d="M0 0 C0.99 0.33 1.98 0.66 3 1 C1.7934375 2.175625 1.7934375 2.175625 0.5625 3.375 C-2.57425495 6.57459839 -2.57425495 6.57459839 -3.1875 10.8125 C-3.00024109 13.99590155 -2.34766743 16.1362067 -1 19 C-2.94921875 18.2734375 -2.94921875 18.2734375 -5 17 C-5.64453125 14.9765625 -5.64453125 14.9765625 -5.8125 12.625 C-5.88082031 11.85414062 -5.94914063 11.08328125 -6.01953125 10.2890625 C-6.00015809 8.01852779 -5.64837076 6.16783507 -5 4 C-4.34 4 -3.68 4 -3 4 C-3 3.34 -3 2.68 -3 2 C-2.01 1.34 -1.02 0.68 0 0 Z " fill="#FDFDFB" transform="translate(6,79)"/>
<path d="M0 0 C3.4375 1.5 3.4375 1.5 6 3 C4.375 4.125 4.375 4.125 2 5 C-1.25 4.125 -1.25 4.125 -4 3 C-4.66 3.66 -5.32 4.32 -6 5 C-8.625 5.625 -8.625 5.625 -11 6 C-11 4 -11 4 -9.4375 1.875 C-6.08599859 -0.703078 -4.14862726 -0.50069639 0 0 Z " fill="#7C8591" transform="translate(260,312)"/>
<path d="M0 0 C0.66 0 1.32 0 2 0 C1.38367054 4.95998472 -0.79835629 8.93671966 -3.0625 13.3125 C-3.62807617 14.42334961 -3.62807617 14.42334961 -4.20507812 15.55664062 C-5.13128157 17.37387522 -6.06490629 19.18732404 -7 21 C-8 18 -8 18 -7 15 C-6.34 15 -5.68 15 -5 15 C-5 13.68 -5 12.36 -5 11 C-4.34 11 -3.68 11 -3 11 C-2.814375 9.39125 -2.814375 9.39125 -2.625 7.75 C-2.10356064 4.62136385 -1.59911746 2.66519576 0 0 Z " fill="#ECF0F2" transform="translate(363,230)"/>
<path d="M0 0 C0.33 0 0.66 0 1 0 C1.13277344 1.21816406 1.26554687 2.43632812 1.40234375 3.69140625 C1.58066967 5.3151107 1.75905843 6.93880825 1.9375 8.5625 C2.02451172 9.36236328 2.11152344 10.16222656 2.20117188 10.98632812 C2.71761452 15.67256697 3.30521531 20.33680546 4 25 C1.41652388 23.70826194 1.05475844 22.65750364 0 20 C-0.22705078 17.70996094 -0.22705078 17.70996094 -0.1953125 15.234375 C-0.18886719 14.34492188 -0.18242188 13.45546875 -0.17578125 12.5390625 C-0.15902344 11.61867187 -0.14226563 10.69828125 -0.125 9.75 C-0.11597656 8.81414062 -0.10695312 7.87828125 -0.09765625 6.9140625 C-0.07413636 4.60911343 -0.04126853 2.3046884 0 0 Z " fill="#ECF0F2" transform="translate(57,185)"/>
<path d="M0 0 C0.66 0.33 1.32 0.66 2 1 C1.5359375 2.175625 1.5359375 2.175625 1.0625 3.375 C-0.26335807 7.89851578 -0.64811085 12.31431814 -1 17 C-2.5078125 15.80859375 -2.5078125 15.80859375 -4 14 C-4.1796875 11.66015625 -4.1796875 11.66015625 -3.875 9.0625 C-3.78992188 8.20785156 -3.70484375 7.35320312 -3.6171875 6.47265625 C-2.92676238 3.70658597 -1.84245434 2.14621032 0 0 Z " fill="#FD9D7C" transform="translate(140,273)"/>
<path d="M0 0 C2.5843218 2.5843218 3.10401163 4.89375577 4.1875 8.375 C4.55230469 9.51710937 4.91710937 10.65921875 5.29296875 11.8359375 C5.95860385 14.81474653 6.07938697 16.20871903 5 19 C4.81824219 18.45730469 4.63648437 17.91460937 4.44921875 17.35546875 C4.19785156 16.64003906 3.94648437 15.92460937 3.6875 15.1875 C3.44386719 14.47980469 3.20023438 13.77210938 2.94921875 13.04296875 C2.12057734 10.92040116 2.12057734 10.92040116 0.375 9.5 C-1 8 -1 8 -1.07421875 5.95703125 C-0.71614583 3.97135417 -0.35807292 1.98567708 0 0 Z " fill="#112136" transform="translate(60,141)"/>
<path d="M0 0 C3.07106515 1.53553257 3.67187576 3.92116654 5 7 C5 8.32 5 9.64 5 11 C5.66 11 6.32 11 7 11 C8.06775224 12.96466413 9.06553465 14.96855359 10 17 C9.67 17.66 9.34 18.32 9 19 C3.61723233 13.58239241 0 7.84280546 0 0 Z " fill="#AAB2BA" transform="translate(90,238)"/>
<path d="M0 0 C0.2475 0.53625 0.495 1.0725 0.75 1.625 C2.03434429 4.18225578 2.03434429 4.18225578 4.125 7.0625 C6 10 6 10 6 13 C1.56541027 11.6062718 -0.87378374 9.39417765 -4 6 C-1.525 6.99 -1.525 6.99 1 8 C0.67 7.34 0.34 6.68 0 6 C-0.039992 4.00039988 -0.04346799 1.99952758 0 0 Z " fill="#F7F0ED" transform="translate(137,289)"/>
<path d="M0 0 C3.84812555 1.56775485 6.29729456 3.87055159 9 7 C10.3125 10.3125 10.3125 10.3125 11 13 C10.01 12.67 9.02 12.34 8 12 C8 11.34 8 10.68 8 10 C7.34 10 6.68 10 6 10 C6 9.01 6 8.02 6 7 C5.01 6.67 4.02 6.34 3 6 C3 5.34 3 4.68 3 4 C1.68 3.34 0.36 2.68 -1 2 C-0.67 1.34 -0.34 0.68 0 0 Z " fill="#8C929B" transform="translate(83,80)"/>
<path d="M0 0 C0.66 0.33 1.32 0.66 2 1 C0.35 6.94 -1.3 12.88 -3 19 C-3.66 19 -4.32 19 -5 19 C-2.26213592 4.52427184 -2.26213592 4.52427184 0 0 Z " fill="#F5F7F8" transform="translate(145,103)"/>
<path d="M0 0 C1.5 1.25 1.5 1.25 3 3 C3 4.32 3 5.64 3 7 C3.66 7 4.32 7 5 7 C8.07692308 13.4 8.07692308 13.4 7.6875 16.4375 C7.460625 16.953125 7.23375 17.46875 7 18 C6.34 16.35 5.68 14.7 5 13 C4.34 13 3.68 13 3 13 C2.49689942 11.2092015 1.99761372 9.41733089 1.5 7.625 C1.2215625 6.62726563 0.943125 5.62953125 0.65625 4.6015625 C0 2 0 2 0 0 Z " fill="#97A0AA" transform="translate(287,63)"/>
<path d="M0 0 C-0.33 0.99 -0.66 1.98 -1 3 C-5.62 3 -10.24 3 -15 3 C-15 3.66 -15 4.32 -15 5 C-17.64 4.67 -20.28 4.34 -23 4 C-23 3.67 -23 3.34 -23 3 C-20.29273634 2.4935186 -17.58442876 1.994649 -14.875 1.5 C-13.73417969 1.28537109 -13.73417969 1.28537109 -12.5703125 1.06640625 C-8.31957086 0.29687544 -4.34140803 -0.16644376 0 0 Z " fill="#A2AEB8" transform="translate(207,1)"/>
<path d="M0 0 C0 0.99 0 1.98 0 3 C-2.5546875 4.859375 -2.5546875 4.859375 -5.875 6.75 C-6.96554687 7.38421875 -8.05609375 8.0184375 -9.1796875 8.671875 C-10.11039062 9.11015625 -11.04109375 9.5484375 -12 10 C-12.66 9.67 -13.32 9.34 -14 9 C-13.278125 8.608125 -12.55625 8.21625 -11.8125 7.8125 C-8.77198671 5.8530581 -6.51625635 3.58426328 -4 1 C-2 0 -2 0 0 0 Z " fill="#99A0A8" transform="translate(318,318)"/>
<path d="M0 0 C0.66 0 1.32 0 2 0 C2 0.66 2 1.32 2 2 C2.66 2 3.32 2 4 2 C4.33 3.32 4.66 4.64 5 6 C5.66 6 6.32 6 7 6 C8.625 8.5 8.625 8.5 10 11 C6.49411644 10.43601004 5.01017608 9.33036227 2.75 6.625 C2.22921875 6.01914062 1.7084375 5.41328125 1.171875 4.7890625 C0 3 0 3 0 0 Z " fill="#707A85" transform="translate(194,308)"/>
<path d="M0 0 C-0.33 0.99 -0.66 1.98 -1 3 C-2.04800781 3.05607422 -2.04800781 3.05607422 -3.1171875 3.11328125 C-4.48230469 3.21189453 -4.48230469 3.21189453 -5.875 3.3125 C-7.23238281 3.39951172 -7.23238281 3.39951172 -8.6171875 3.48828125 C-11.36221601 3.7882039 -11.36221601 3.7882039 -13 7 C-13.66 6.67 -14.32 6.34 -15 6 C-15 5.34 -15 4.68 -15 4 C-9.68385929 1.22110827 -5.98688376 -0.16630233 0 0 Z " fill="#FDA385" transform="translate(157,267)"/>
<path d="M0 0 C2.14642449 3.21963674 3.35881354 6.44429859 4.625 10.0625 C4.85445313 10.69994141 5.08390625 11.33738281 5.3203125 11.99414062 C7 16.738258 7 16.738258 7 19 C6.34 19 5.68 19 5 19 C4.49440092 17.56445975 3.9957251 16.1264798 3.5 14.6875 C3.2215625 13.88699219 2.943125 13.08648437 2.65625 12.26171875 C2 10 2 10 2 7 C1.34 7 0.68 7 0 7 C0 4.69 0 2.38 0 0 Z " fill="#EAEFF1" transform="translate(64,224)"/>
<path d="M0 0 C0.66 0 1.32 0 2 0 C2.13277344 0.85464844 2.26554687 1.70929688 2.40234375 2.58984375 C2.57894531 3.69457031 2.75554687 4.79929687 2.9375 5.9375 C3.19853516 7.59072266 3.19853516 7.59072266 3.46484375 9.27734375 C3.71845136 11.90426929 3.71845136 11.90426929 5 13 C5.04063832 14.66617115 5.042721 16.33388095 5 18 C4.01 18 3.02 18 2 18 C1.34 12.06 0.68 6.12 0 0 Z " fill="#AFB8BF" transform="translate(386,119)"/>
<path d="M0 0 C5.5538484 1.08367774 8.15218525 3.88120901 11.77734375 7.9296875 C13 10 13 10 12.69140625 12.2578125 C12.46324219 12.83273438 12.23507813 13.40765625 12 14 C11.62875 13.0925 11.2575 12.185 10.875 11.25 C8.73631614 7.54294797 6.58194757 6.22876738 3 4 C3 3.34 3 2.68 3 2 C2.01 1.67 1.02 1.34 0 1 C0 0.67 0 0.34 0 0 Z " fill="#FC6E40" transform="translate(54,102)"/>
<path d="M0 0 C2.475 0.99 2.475 0.99 5 2 C5 2.99 5 3.98 5 5 C5.66 5 6.32 5 7 5 C7 5.66 7 6.32 7 7 C7.66 7 8.32 7 9 7 C9.33 8.32 9.66 9.64 10 11 C9.01 11 8.02 11 7 11 C5.17578125 9.1015625 5.17578125 9.1015625 3.3125 6.625 C2.68988281 5.81289063 2.06726563 5.00078125 1.42578125 4.1640625 C0 2 0 2 0 0 Z " fill="#68727D" transform="translate(265,32)"/>
<path d="M0 0 C3.3907437 1.45317587 5.63402118 3.16082541 8 6 C9.25 9.25 9.25 9.25 10 12 C9.01 11.34 8.02 10.68 7 10 C7 9.34 7 8.68 7 8 C6.34 8 5.68 8 5 8 C5 7.34 5 6.68 5 6 C4.01 5.67 3.02 5.34 2 5 C2 4.34 2 3.68 2 3 C1.34 3 0.68 3 0 3 C0 2.01 0 1.02 0 0 Z " fill="#747D88" transform="translate(241,31)"/>
<path d="M0 0 C0.33 0 0.66 0 1 0 C1.34548714 6.33393082 0.29342747 11.10261508 -2 17 C-3.24659153 13.37434999 -2.78926902 10.54787577 -2.125 6.8125 C-1.94195312 5.74644531 -1.75890625 4.68039062 -1.5703125 3.58203125 C-1 1 -1 1 0 0 Z " fill="#E2E8EA" transform="translate(183,284)"/>
<path d="M0 0 C0.99 0.33 1.98 0.66 3 1 C2.49287967 4.71888239 1.88391785 7.73454239 0 11 C-0.66 11 -1.32 11 -2 11 C-2.12375 11.804375 -2.2475 12.60875 -2.375 13.4375 C-2.58125 14.283125 -2.7875 15.12875 -3 16 C-3.66 16.33 -4.32 16.66 -5 17 C-4.55123384 15.35153231 -4.09069512 13.70626545 -3.625 12.0625 C-3.36976563 11.14597656 -3.11453125 10.22945312 -2.8515625 9.28515625 C-2 7 -2 7 0 6 C0 4.02 0 2.04 0 0 Z " fill="#FEBDA5" transform="translate(310,217)"/>
<path d="M0 0 C2.91725552 3.3877806 4.28255824 7.07337555 5.6875 11.25 C6.02491211 12.22453125 6.02491211 12.22453125 6.36914062 13.21875 C6.91916227 14.81030199 7.46046788 16.40486156 8 18 C7.34 18 6.68 18 6 18 C2.25242867 13.11186348 0 6.14602186 0 0 Z " fill="#FC916F" transform="translate(101,220)"/>
<path d="M0 0 C-1.32 0.33 -2.64 0.66 -4 1 C-4 1.66 -4 2.32 -4 3 C-7.96 3.66 -11.92 4.32 -16 5 C-14.35 3.35 -12.7 1.7 -11 0 C-11 0.66 -11 1.32 -11 2 C-10.45730469 1.77183594 -9.91460937 1.54367187 -9.35546875 1.30859375 C-8.28232422 0.87740234 -8.28232422 0.87740234 -7.1875 0.4375 C-6.47980469 0.14746094 -5.77210938 -0.14257812 -5.04296875 -0.44140625 C-3 -1 -3 -1 0 0 Z " fill="#C8D0D4" transform="translate(285,317)"/>
<path d="M0 0 C5.94 0 11.88 0 18 0 C18 0.33 18 0.66 18 1 C13.05 1 8.1 1 3 1 C3 2.98 3 4.96 3 7 C1 4 1 4 0 0 Z " fill="#FEB89B" transform="translate(102,155)"/>
<path d="M0 0 C-1.95421035 0.86355778 -3.91351347 1.71559934 -5.875 2.5625 C-6.96554688 3.03816406 -8.05609375 3.51382812 -9.1796875 4.00390625 C-10.11039063 4.33261719 -11.04109375 4.66132812 -12 5 C-12.66 4.67 -13.32 4.34 -14 4 C-11.85448517 1.61981949 -9.98826264 0.33639643 -7 -0.8125 C-6.319375 -1.08707031 -5.63875 -1.36164062 -4.9375 -1.64453125 C-3 -2 -3 -2 0 0 Z " fill="#5E6B78" transform="translate(178,28)"/>
<path d="M0 0 C3.49844386 0.63389235 5.84086876 2.05177694 8.75 4.0625 C9.94882812 4.88427734 9.94882812 4.88427734 11.171875 5.72265625 C12.07679688 6.35494141 12.07679688 6.35494141 13 7 C12.01 7.495 12.01 7.495 11 8 C5.79778526 6.26592842 3.14774806 4.65866713 0 0 Z " fill="#969EA7" transform="translate(305,22)"/>
<path d="M0 0 C-1.24252679 0.84443568 -2.4943886 1.6751458 -3.75 2.5 C-4.79414063 3.19609375 -4.79414063 3.19609375 -5.859375 3.90625 C-8 5 -8 5 -12 5 C-12 4.34 -12 3.68 -12 3 C-10.5682384 2.30062798 -9.12932968 1.61587282 -7.6875 0.9375 C-6.48673828 0.36322266 -6.48673828 0.36322266 -5.26171875 -0.22265625 C-3 -1 -3 -1 0 0 Z " fill="#FD916E" transform="translate(295,245)"/>
<path d="M0 0 C2.55934601 1.279673 2.6989233 2.24201036 3.6875 4.875 C3.95949219 5.57367188 4.23148437 6.27234375 4.51171875 6.9921875 C5 9 5 9 4 12 C1.27352315 9.64531545 0.01243658 7.4591583 -1 4 C-0.625 1.6875 -0.625 1.6875 0 0 Z " fill="#FDA07F" transform="translate(120,208)"/>
<path d="M0 0 C1.22602512 3.67807537 0.70295577 5.88243927 0.0625 9.6875 C-0.13214844 10.86699219 -0.32679688 12.04648438 -0.52734375 13.26171875 C-0.68332031 14.16535156 -0.83929688 15.06898438 -1 16 C-3.29013653 12.5647952 -3.17842973 11.014669 -3 7 C-2.34 7 -1.68 7 -1 7 C-1.020625 6.030625 -1.04125 5.06125 -1.0625 4.0625 C-1 1 -1 1 0 0 Z " fill="#EEF2F3" transform="translate(374,191)"/>
<path d="M0 0 C0.66 0 1.32 0 2 0 C1.53199289 4.05606165 1.12046792 7.46588679 -1 11 C-2.32 10.34 -3.64 9.68 -5 9 C-3.625 6.5 -3.625 6.5 -2 4 C-1.34 4 -0.68 4 0 4 C0 2.68 0 1.36 0 0 Z " fill="#8A939F" transform="translate(160,66)"/>
<path d="M0 0 C6.14689273 0.36881356 8.69027374 1.90050429 13 6 C12.67 6.66 12.34 7.32 12 8 C11.649375 7.54625 11.29875 7.0925 10.9375 6.625 C8.9332647 4.71760349 8.9332647 4.71760349 5.4375 4 C2 3 2 3 0 0 Z " fill="#FCBBA5" transform="translate(158,268)"/>
<path d="M0 0 C1.46126024 5.84504097 0.47230726 10.56092404 -2 16 C-2.66 16 -3.32 16 -4 16 C-2.68 10.72 -1.36 5.44 0 0 Z " fill="#EAEEF1" transform="translate(165,104)"/>
<path d="M0 0 C4.35522853 0.50642192 7.44239635 1.38411497 11 4 C11 4.66 11 5.32 11 6 C6.95743617 4.77782954 3.50711041 3.37245704 0 1 C0 0.67 0 0.34 0 0 Z " fill="#6B7480" transform="translate(114,75)"/>
<path d="M0 0 C0.66 0 1.32 0 2 0 C2 0.66 2 1.32 2 2 C2.99 2.33 3.98 2.66 5 3 C6.38576923 4.62332967 7.72641268 6.28724465 9 8 C8.67 8.66 8.34 9.32 8 10 C6.65787938 8.90653119 5.32652025 7.7998425 4 6.6875 C3.2575 6.07261719 2.515 5.45773438 1.75 4.82421875 C0 3 0 3 0 0 Z " fill="#A0A6AE" transform="translate(351,59)"/>
<path d="M0 0 C1.98 0.99 1.98 0.99 4 2 C4.75 5.625 4.75 5.625 5 9 C4.01 9.495 4.01 9.495 3 10 C2.01 6.7 1.02 3.4 0 0 Z " fill="#676F7A" transform="translate(85,230)"/>
<path d="M0 0 C0.99 0 1.98 0 3 0 C3.33 2.97 3.66 5.94 4 9 C3.01 9.495 3.01 9.495 2 10 C1.34 6.7 0.68 3.4 0 0 Z " fill="#FE8A64" transform="translate(114,194)"/>
<path d="M0 0 C4.12751449 0.60698743 7.3321148 2.03810791 11 4 C11 4.33 11 4.66 11 5 C9.35 5 7.7 5 6 5 C6 4.34 6 3.68 6 3 C4.35 3 2.7 3 1 3 C0.67 2.01 0.34 1.02 0 0 Z " fill="#8B949E" transform="translate(154,310)"/>
<path d="M0 0 C1.22589844 0.15275391 1.22589844 0.15275391 2.4765625 0.30859375 C3.41628906 0.43427734 3.41628906 0.43427734 4.375 0.5625 C4.375 0.8925 4.375 1.2225 4.375 1.5625 C-0.08 2.0575 -0.08 2.0575 -4.625 2.5625 C-4.955 3.8825 -5.285 5.2025 -5.625 6.5625 C-6.285 6.2325 -6.945 5.9025 -7.625 5.5625 C-7.25 3.125 -7.25 3.125 -6.625 0.5625 C-4.10446405 -0.69776798 -2.7707902 -0.35624445 0 0 Z " fill="#70808C" transform="translate(198.625,300.4375)"/>
<path d="M0 0 C0.66 0 1.32 0 2 0 C1.55005243 1.79379098 1.08975857 3.58498928 0.625 5.375 C0.36976563 6.37273437 0.11453125 7.37046875 -0.1484375 8.3984375 C-1 11 -1 11 -3 13 C-2.88490339 11.58249437 -2.75746342 10.16598831 -2.625 8.75 C-2.55539062 7.96109375 -2.48578125 7.1721875 -2.4140625 6.359375 C-1.98492887 3.914123 -1.21399362 2.15163097 0 0 Z " fill="#FDF3EC" transform="translate(307,161)"/>
<path d="M0 0 C4.20626034 1.50223584 5.73900021 4.28550034 8 8 C5.525 7.01 5.525 7.01 3 6 C3 5.34 3 4.68 3 4 C2.01 3.67 1.02 3.34 0 3 C0 2.01 0 1.02 0 0 Z " fill="#959BA4" transform="translate(119,307)"/>
<path d="M0 0 C6.75 2.625 6.75 2.625 9 6 C8.67 6.99 8.34 7.98 8 9 C7.236875 8.21625 6.47375 7.4325 5.6875 6.625 C3.09108195 3.92742283 3.09108195 3.92742283 0 2 C0 1.34 0 0.68 0 0 Z " fill="#FB9B7D" transform="translate(281,272)"/>
<path d="M0 0 C-1 3 -1 3 -3.9375 4.75 C-5.4534375 5.36875 -5.4534375 5.36875 -7 6 C-7.66 5.67 -8.32 5.34 -9 5 C-6.45523312 2.20075644 -3.92372883 0 0 0 Z " fill="#727A84" transform="translate(303,327)"/>
<path d="M0 0 C0.66 0.33 1.32 0.66 2 1 C1.236875 1.7425 0.47375 2.485 -0.3125 3.25 C-2.4393702 5.4263323 -4.2559956 7.52167796 -6 10 C-6 6 -6 6 -5 4 C-4.34 4 -3.68 4 -3 4 C-2.67 3.01 -2.34 2.02 -2 1 C-1.34 0.67 -0.68 0.34 0 0 Z " fill="#FEEDE6" transform="translate(259,272)"/>
<path d="M0 0 C2.45823172 3.68734758 3.01242616 6.69699971 4 11 C3.01 10.67 2.02 10.34 1 10 C1 8.02 1 6.04 1 4 C0.34 4 -0.32 4 -1 4 C-0.67 2.68 -0.34 1.36 0 0 Z " fill="#FEEFE9" transform="translate(75,144)"/>
<path d="M0 0 C1.485 0.99 1.485 0.99 3 2 C3 2.66 3 3.32 3 4 C3.99 4 4.98 4 6 4 C6.33 5.65 6.66 7.3 7 9 C2.97449681 7.6581656 2.11714364 5.5772427 0 2 C0 1.34 0 0.68 0 0 Z " fill="#525A68" transform="translate(362,74)"/>
<path d="M0 0 C0.5775 0.37125 1.155 0.7425 1.75 1.125 C-4.875 4.25 -4.875 4.25 -8.25 3.125 C-7.59 3.125 -6.93 3.125 -6.25 3.125 C-6.25 2.465 -6.25 1.805 -6.25 1.125 C-2.80384615 -1.09038462 -2.80384615 -1.09038462 0 0 Z " fill="#858E9A" transform="translate(292.25,332.875)"/>
<path d="M0 0 C0.99 0.495 0.99 0.495 2 1 C2.4140625 3.06640625 2.4140625 3.06640625 2.625 5.5625 C2.69976562 6.38878906 2.77453125 7.21507813 2.8515625 8.06640625 C2.92503906 9.02353516 2.92503906 9.02353516 3 10 C2.01 10.495 2.01 10.495 1 11 C0 3.375 0 3.375 0 0 Z " fill="#FDB39C" transform="translate(92,120)"/>
<path d="M0 0 C0.99 0.33 1.98 0.66 3 1 C0.66666667 3.33333333 -1.66666667 5.66666667 -4 8 C-4.33 6.68 -4.66 5.36 -5 4 C-4.34 4 -3.68 4 -3 4 C-3 3.34 -3 2.68 -3 2 C-2.01 1.34 -1.02 0.68 0 0 Z " fill="#FDF5F0" transform="translate(6,79)"/>
<path d="M0 0 C2.52259061 1.97420135 2.9929808 2.96745642 3.6875 6.1875 C3.790625 7.115625 3.89375 8.04375 4 9 C1.24338912 6.51015791 -0.60746455 4.79450934 -1 1 C-0.67 0.67 -0.34 0.34 0 0 Z " fill="#0A2036" transform="translate(291,75)"/>
<path d="M0 0 C0.66 0 1.32 0 2 0 C2.33 1.98 2.66 3.96 3 6 C3.66 6 4.32 6 5 6 C4.67 6.99 4.34 7.98 4 9 C1.47740939 7.02579865 1.0070192 6.03254358 0.3125 2.8125 C0.209375 1.884375 0.10625 0.95625 0 0 Z " fill="#828B95" transform="translate(282,54)"/>
<path d="M0 0 C1.32 0.66 2.64 1.32 4 2 C-1.75 5 -1.75 5 -4 5 C-4 4.34 -4 3.68 -4 3 C-2 1.375 -2 1.375 0 0 Z " fill="#0A273F" transform="translate(293,312)"/>
<path d="M0 0 C2.3125 0.1875 2.3125 0.1875 5 1 C6.8125 3.5625 6.8125 3.5625 8 6 C5.525 5.01 5.525 5.01 3 4 C3 3.34 3 2.68 3 2 C2.01 1.67 1.02 1.34 0 1 C0 0.67 0 0.34 0 0 Z " fill="#767F8A" transform="translate(307,46)"/>
<path d="M0 0 C-1.65 0.33 -3.3 0.66 -5 1 C-5 1.66 -5 2.32 -5 3 C-6.65 3.66 -8.3 4.32 -10 5 C-9.01906046 2.54765115 -8.31296172 1.2190732 -6.125 -0.3125 C-3.64990694 -1.1132654 -2.41712366 -0.86325845 0 0 Z " fill="#6C7581" transform="translate(227,25)"/>
<path d="M0 0 C2.29013653 3.4352048 2.17842973 4.985331 2 9 C1.01 8.34 0.02 7.68 -1 7 C-1.25 3.9375 -1.25 3.9375 -1 1 C-0.67 0.67 -0.34 0.34 0 0 Z " fill="#061A30" transform="translate(77,199)"/>
<path d="M0 0 C0.66 0 1.32 0 2 0 C3.49821059 3.37097383 4 5.20442119 4 9 C3.34 9 2.68 9 2 9 C1.34 6.03 0.68 3.06 0 0 Z " fill="#FDFCFA" transform="translate(77,155)"/>
<path d="M0 0 C2.31 0.66 4.62 1.32 7 2 C7 2.66 7 3.32 7 4 C5.02 4 3.04 4 1 4 C0.67 2.68 0.34 1.36 0 0 Z " fill="#FD8D67" transform="translate(60,81)"/>
<path d="M0 0 C0.33 0.99 0.66 1.98 1 3 C0.34 3 -0.32 3 -1 3 C-1.66 4.65 -2.32 6.3 -3 8 C-3.75 6.25 -3.75 6.25 -4 4 C-2.0625 1.75 -2.0625 1.75 0 0 Z " fill="#88919B" transform="translate(182,68)"/>
<path d="M0 0 C-4.455 1.485 -4.455 1.485 -9 3 C-8 0 -8 0 -6.1875 -1.3125 C-4 -2 -4 -2 0 0 Z " fill="#65717E" transform="translate(164,34)"/>
<path d="M0 0 C0.66 0 1.32 0 2 0 C2 1.65 2 3.3 2 5 C0.68 5.33 -0.64 5.66 -2 6 C-2 5.01 -2 4.02 -2 3 C-1.34 3 -0.68 3 0 3 C0 2.01 0 1.02 0 0 Z " fill="#FDB198" transform="translate(287,216)"/>
<path d="M0 0 C0.66 0 1.32 0 2 0 C5 5.75 5 5.75 5 8 C4.34 8 3.68 8 3 8 C0 2.25 0 2.25 0 0 Z " fill="#F3F6F7" transform="translate(360,109)"/>
<path d="M0 0 C0.33 0.66 0.66 1.32 1 2 C-1.46153846 5.81538462 -1.46153846 5.81538462 -4.1875 6.75 C-4.785625 6.8325 -5.38375 6.915 -6 7 C-6 6.34 -6 5.68 -6 5 C-5.34 5 -4.68 5 -4 5 C-4 4.34 -4 3.68 -4 3 C-2 1.375 -2 1.375 0 0 Z " fill="#868E99" transform="translate(192,25)"/>
</svg>
